<svg width="1920" height="1080" viewBox="0 0 1920 1080" fill="none" xmlns="http://www.w3.org/2000/svg">
  <defs>
    <linearGradient id="bg" x1="0" y1="0" x2="1" y2="1">
      <stop offset="0%" stop-color="#EAF2FF"/>
      <stop offset="50%" stop-color="#EEF2FF"/>
      <stop offset="100%" stop-color="#F0F9FF"/>
    </linearGradient>

    <linearGradient id="card" x1="0" y1="0" x2="1" y2="1">
      <stop offset="0%" stop-color="#2563EB" stop-opacity="0.18"/>
      <stop offset="100%" stop-color="#4F46E5" stop-opacity="0.1"/>
    </linearGradient>

    <linearGradient id="line" x1="0" y1="0" x2="1" y2="0">
      <stop offset="0%" stop-color="#3B82F6" stop-opacity="0.35"/>
      <stop offset="100%" stop-color="#6366F1" stop-opacity="0.35"/>
    </linearGradient>

    <pattern id="grid" width="44" height="44" patternUnits="userSpaceOnUse">
      <path d="M44 0H0V44" stroke="#6366F1" stroke-opacity="0.12"/>
    </pattern>

    <filter id="soft" x="-20%" y="-20%" width="140%" height="140%">
      <feGaussianBlur stdDeviation="20"/>
    </filter>
  </defs>

  <rect width="1920" height="1080" fill="url(#bg)"/>
  <rect width="1920" height="1080" fill="url(#grid)"/>

  <circle cx="220" cy="180" r="170" fill="#3B82F6" fill-opacity="0.18" filter="url(#soft)"/>
  <circle cx="1710" cy="190" r="170" fill="#6366F1" fill-opacity="0.18" filter="url(#soft)"/>
  <circle cx="980" cy="980" r="220" fill="#0EA5E9" fill-opacity="0.12" filter="url(#soft)"/>

  <g opacity="0.9">
    <rect x="180" y="210" width="760" height="430" rx="28" fill="url(#card)" stroke="#3B82F6" stroke-opacity="0.25"/>
    <rect x="220" y="260" width="680" height="330" rx="20" fill="#FFFFFF" fill-opacity="0.55"/>

    <line x1="220" y1="320" x2="900" y2="320" stroke="url(#line)" stroke-width="2"/>
    <line x1="220" y1="380" x2="900" y2="380" stroke="url(#line)" stroke-width="2"/>
    <line x1="220" y1="440" x2="900" y2="440" stroke="url(#line)" stroke-width="2"/>
    <line x1="220" y1="500" x2="900" y2="500" stroke="url(#line)" stroke-width="2"/>

    <line x1="350" y1="260" x2="350" y2="590" stroke="#6366F1" stroke-opacity="0.2"/>
    <line x1="490" y1="260" x2="490" y2="590" stroke="#6366F1" stroke-opacity="0.2"/>
    <line x1="630" y1="260" x2="630" y2="590" stroke="#6366F1" stroke-opacity="0.2"/>
    <line x1="770" y1="260" x2="770" y2="590" stroke="#6366F1" stroke-opacity="0.2"/>
  </g>

  <g>
    <rect x="1030" y="260" width="380" height="150" rx="20" fill="#FFFFFF" fill-opacity="0.68" stroke="#3B82F6" stroke-opacity="0.25"/>
    <rect x="1030" y="450" width="380" height="150" rx="20" fill="#FFFFFF" fill-opacity="0.68" stroke="#6366F1" stroke-opacity="0.25"/>

    <circle cx="1090" cy="335" r="26" fill="#3B82F6" fill-opacity="0.18"/>
    <path d="M1090 319V337L1102 345" stroke="#1D4ED8" stroke-width="3" stroke-linecap="round"/>

    <rect x="1140" y="310" width="220" height="12" rx="6" fill="#3B82F6" fill-opacity="0.35"/>
    <rect x="1140" y="336" width="170" height="10" rx="5" fill="#6366F1" fill-opacity="0.25"/>

    <rect x="1080" y="500" width="280" height="12" rx="6" fill="#6366F1" fill-opacity="0.35"/>
    <rect x="1080" y="526" width="220" height="10" rx="5" fill="#3B82F6" fill-opacity="0.25"/>
  </g>
</svg>
